# Blender 4.1.1

o Cone
v 0.000000 0.000000 -0.500000
v 0.191342 0.000000 -0.461940
v 0.353553 0.000000 -0.353553
v 0.461940 0.000000 -0.191342
v 0.500000 0.000000 0.000000
v 0.461940 0.000000 0.191342
v 0.353553 0.000000 0.353553
v 0.191342 0.000000 0.461940
v 0.000000 0.000000 0.500000
v -0.191342 0.000000 0.461940
v -0.353553 0.000000 0.353553
v -0.461940 0.000000 0.191342
v -0.500000 0.000000 0.000000
v -0.461940 0.000000 -0.191342
v -0.353553 0.000000 -0.353553
v -0.191342 0.000000 -0.461940
v 0.000000 1.000000 0.000000
vn -0.0000 -0.4834 -0.8754
vn 0.3350 -0.4834 -0.8088
vn 0.6190 -0.4834 -0.6190
vn 0.8088 -0.4834 -0.3350
vn 0.8754 -0.4834 -0.0000
vn 0.8088 -0.4834 0.3350
vn 0.6190 -0.4834 0.6190
vn 0.3350 -0.4834 0.8088
vn -0.0000 -0.4834 0.8754
vn -0.3350 -0.4834 0.8088
vn -0.6190 -0.4834 0.6190
vn -0.8088 -0.4834 0.3350
vn -0.8754 -0.4834 -0.0000
vn -0.8088 -0.4834 -0.3350
vn -0.6190 -0.4834 -0.6190
vn -0.3350 -0.4834 -0.8088
vn -0.0000 1.0000 -0.0000
vt 0.250000 0.490000
vt 0.250000 0.250000
vt 0.341844 0.471731
vt 0.419706 0.419706
vt 0.471731 0.341844
vt 0.490000 0.250000
vt 0.471731 0.158156
vt 0.419706 0.080294
vt 0.341844 0.028269
vt 0.250000 0.010000
vt 0.158156 0.028269
vt 0.080294 0.080294
vt 0.028269 0.158156
vt 0.010000 0.250000
vt 0.028269 0.341844
vt 0.080294 0.419706
vt 0.750000 0.490000
vt 0.841844 0.471731
vt 0.919706 0.419706
vt 0.971731 0.341844
vt 0.990000 0.250000
vt 0.971731 0.158156
vt 0.919706 0.080294
vt 0.841844 0.028269
vt 0.750000 0.010000
vt 0.658156 0.028269
vt 0.580294 0.080294
vt 0.528269 0.158156
vt 0.510000 0.250000
vt 0.528269 0.341844
vt 0.580294 0.419706
vt 0.658156 0.471731
vt 0.158156 0.471731
s 1
f 1/1/1 17/2/17 2/3/2
f 2/3/2 17/2/17 3/4/3
f 3/4/3 17/2/17 4/5/4
f 4/5/4 17/2/17 5/6/5
f 5/6/5 17/2/17 6/7/6
f 6/7/6 17/2/17 7/8/7
f 7/8/7 17/2/17 8/9/8
f 8/9/8 17/2/17 9/10/9
f 9/10/9 17/2/17 10/11/10
f 10/11/10 17/2/17 11/12/11
f 11/12/11 17/2/17 12/13/12
f 12/13/12 17/2/17 13/14/13
f 13/14/13 17/2/17 14/15/14
f 14/15/14 17/2/17 15/16/15
f 1/17/1 2/18/2 3/19/3 4/20/4 5/21/5 6/22/6 7/23/7 8/24/8 9/25/9 10/26/10 11/27/11 12/28/12 13/29/13 14/30/14 15/31/15 16/32/16
f 15/16/15 17/2/17 16/33/16
f 16/33/16 17/2/17 1/1/1
