# Blender 4.1.1
# www.blender.org
mtllib Gizmo.mtl
o Z-Axis
v 0.050000 -0.050000 0.050000
v 0.000000 -0.000000 -2.000000
v 0.050000 0.050000 0.050000
v -0.050000 -0.050000 0.050000
v -0.050000 0.050000 0.050000
v 0.050000 -0.050000 -1.744151
v -0.050000 0.050000 -1.744151
v 0.050000 0.050000 -1.744151
v -0.050000 -0.050000 -1.744151
v -0.100000 0.100000 -1.744151
v 0.000000 -0.000000 -2.000000
v 0.000000 -0.000000 -2.000000
v 0.000000 -0.000000 -2.000000
v 0.100000 -0.100000 -1.744151
v 0.100000 0.100000 -1.744151
v -0.100000 -0.100000 -1.744151
vn -0.0000 1.0000 -0.0000
vn -0.0000 -0.0000 1.0000
vn -0.0000 -1.0000 -0.0000
vn 1.0000 -0.0000 -0.0000
vn -1.0000 -0.0000 -0.0000
vn -0.0000 0.9314 -0.3640
vn -0.9314 -0.0000 -0.3640
vn 0.9314 -0.0000 -0.3640
vn -0.0000 -0.9314 -0.3640
vt 0.656483 0.425591
s 0
usemtl Material
f 12/1/1 13/1/1 11/1/1 2/1/1
f 6/1/2 9/1/2 16/1/2 14/1/2
f 4/1/2 1/1/2 3/1/2 5/1/2
f 9/1/2 7/1/2 10/1/2 16/1/2
f 4/1/3 9/1/3 6/1/3 1/1/3
f 1/1/4 6/1/4 8/1/4 3/1/4
f 5/1/5 7/1/5 9/1/5 4/1/5
f 3/1/1 8/1/1 7/1/1 5/1/1
f 15/1/6 2/1/6 11/1/6 10/1/6
f 10/1/7 11/1/7 13/1/7 16/1/7
f 14/1/8 12/1/8 2/1/8 15/1/8
f 16/1/9 13/1/9 12/1/9 14/1/9
f 7/1/2 8/1/2 15/1/2 10/1/2
f 8/1/2 6/1/2 14/1/2 15/1/2
o X-Axis
v 0.000000 -0.050000 0.050000
v 2.000000 -0.000000 -0.000000
v 0.000000 0.050000 0.050000
v -0.000000 -0.050000 -0.050000
v -0.000000 0.050000 -0.050000
v 1.744151 -0.050000 0.050000
v 1.744151 0.050000 -0.050000
v 1.744151 0.050000 0.050000
v 1.744151 -0.050000 -0.050000
v 1.744151 0.100000 -0.100000
v 2.000000 -0.000000 -0.000000
v 2.000000 -0.000000 -0.000000
v 2.000000 -0.000000 -0.000000
v 1.744151 -0.100000 0.100000
v 1.744151 0.100000 0.100000
v 1.744151 -0.100000 -0.100000
vn -0.0000 1.0000 -0.0000
vn -1.0000 -0.0000 -0.0000
vn -0.0000 -1.0000 -0.0000
vn -0.0000 -0.0000 1.0000
vn -0.0000 -0.0000 -1.0000
vn 0.3640 0.9314 -0.0000
vn 0.3640 -0.0000 -0.9314
vn 0.3640 -0.0000 0.9314
vn 0.3640 -0.9314 -0.0000
vt 0.106680 0.549606
s 0
usemtl Material
f 28/2/10 29/2/10 27/2/10 18/2/10
f 22/2/11 25/2/11 32/2/11 30/2/11
f 20/2/11 17/2/11 19/2/11 21/2/11
f 25/2/11 23/2/11 26/2/11 32/2/11
f 20/2/12 25/2/12 22/2/12 17/2/12
f 17/2/13 22/2/13 24/2/13 19/2/13
f 21/2/14 23/2/14 25/2/14 20/2/14
f 19/2/10 24/2/10 23/2/10 21/2/10
f 31/2/15 18/2/15 27/2/15 26/2/15
f 26/2/16 27/2/16 29/2/16 32/2/16
f 30/2/17 28/2/17 18/2/17 31/2/17
f 32/2/18 29/2/18 28/2/18 30/2/18
f 23/2/11 24/2/11 31/2/11 26/2/11
f 24/2/11 22/2/11 30/2/11 31/2/11
o Y-Axis
v 0.049500 -0.050500 -0.049500
v -0.000500 1.999500 0.000500
v 0.049500 -0.050500 0.050500
v -0.050500 -0.050500 -0.049500
v -0.050500 -0.050500 0.050500
v 0.049500 1.743651 -0.049500
v -0.050500 1.743651 0.050500
v 0.049500 1.743651 0.050500
v -0.050500 1.743651 -0.049500
v -0.100500 1.743651 0.100500
v -0.000500 1.999500 0.000500
v -0.000500 1.999500 0.000500
v -0.000500 1.999500 0.000500
v 0.099500 1.743651 -0.099500
v 0.099500 1.743651 0.100500
v -0.100500 1.743651 -0.099500
vn -0.0000 1.0000 -0.0000
vn -0.0000 -1.0000 -0.0000
vn -0.0000 -0.0000 -1.0000
vn 1.0000 -0.0000 -0.0000
vn -1.0000 -0.0000 -0.0000
vn -0.0000 -0.0000 1.0000
vn -0.0000 0.3640 0.9314
vn -0.9314 0.3640 -0.0000
vn 0.9314 0.3640 -0.0000
vn -0.0000 0.3640 -0.9314
vt 0.465735 0.500000
s 0
usemtl Material
f 44/3/19 45/3/19 43/3/19 34/3/19
f 38/3/20 41/3/20 48/3/20 46/3/20
f 36/3/20 33/3/20 35/3/20 37/3/20
f 41/3/20 39/3/20 42/3/20 48/3/20
f 36/3/21 41/3/21 38/3/21 33/3/21
f 33/3/22 38/3/22 40/3/22 35/3/22
f 37/3/23 39/3/23 41/3/23 36/3/23
f 35/3/24 40/3/24 39/3/24 37/3/24
f 47/3/25 34/3/25 43/3/25 42/3/25
f 42/3/26 43/3/26 45/3/26 48/3/26
f 46/3/27 44/3/27 34/3/27 47/3/27
f 48/3/28 45/3/28 44/3/28 46/3/28
f 39/3/20 40/3/20 47/3/20 42/3/20
f 40/3/20 38/3/20 46/3/20 47/3/20
